<?xml version="1.0" encoding="UTF-8" standalone="no"?>
<svg width="1446px" height="626px" viewBox="0 0 1446 626" version="1.1" xmlns="http://www.w3.org/2000/svg" xmlns:xlink="http://www.w3.org/1999/xlink" xmlns:sketch="http://www.bohemiancoding.com/sketch/ns">
    <!-- Generator: Sketch 3.2.1 (9971) - http://www.bohemiancoding.com/sketch -->
    <title>Imported Layers</title>
    <desc>Created with Sketch.</desc>
    <defs/>
    <g id="Page-1" stroke="none" stroke-width="1" fill="none" fill-rule="evenodd" sketch:type="MSPage">
        <g id="Imported-Layers" sketch:type="MSLayerGroup">
            <text id="Now-you-can-bookmark-your-favourite-articles-and-" sketch:type="MSTextLayer" font-family="Helvetica Neue" font-size="19" font-weight="260" fill="#FFFFFF">
                <tspan x="89.1216" y="231.680739">Now you can bookmark your favourite articles and </tspan>
            </text>
            <text id="designs.-Build-a-library-of-inspiring-quality-content-" sketch:type="MSTextLayer" font-family="Helvetica Neue" font-size="19" font-weight="260" fill="#FFFFFF">
                <tspan x="89.1216" y="260.680439">designs. Build a library of inspiring quality content </tspan>
            </text>
            <text id="all-under-one-roof.-" sketch:type="MSTextLayer" font-family="Helvetica Neue" font-size="19" font-weight="260" fill="#FFFFFF">
                <tspan x="89.1216" y="231.680739">all under one </tspan>
                <tspan x="199.6446" y="231.680739" letter-spacing="-0.323">r</tspan>
                <tspan x="204.9646" y="231.680739">oof. </tspan>
            </text>
            <path d="M0.792,0.27 L1445.035,0.27 L1445.035,625.27 L0.792,625.27 L0.792,0.27 Z" id="Fill-1" fill="#5272AA" sketch:type="MSShapeGroup"/>
            <path d="M1201.544,569.87 L1232.048,380.837 L1262.553,569.87 L1201.544,569.87" id="Fill-2" fill="#538F67" sketch:type="MSShapeGroup"/>
            <path d="M1231.425,420.233 L1229.195,601.163 L1236.108,601.163 L1232.652,420.233 L1231.425,420.233" id="Fill-3" fill="#73BE8C" sketch:type="MSShapeGroup"/>
            <path d="M1223.964,447.636 C1223.964,447.636 1224.132,447.962 1224.427,448.533 C1224.571,448.818 1224.758,449.159 1224.977,449.543 C1225.204,449.922 1225.459,450.349 1225.738,450.815 C1226.024,451.273 1226.348,451.758 1226.716,452.247 C1227.086,452.734 1227.513,453.207 1227.946,453.691 C1228.182,453.909 1228.412,454.146 1228.664,454.353 C1228.931,454.531 1229.171,454.775 1229.466,454.904 L1229.889,455.135 C1230.034,455.201 1230.187,455.237 1230.335,455.291 C1230.628,455.424 1230.942,455.418 1231.245,455.47 L1231.359,455.491 L1231.458,455.491 L1231.732,455.49 C1231.908,455.485 1232.113,455.501 1232.265,455.477 C1232.575,455.432 1232.883,455.418 1233.204,455.319 C1233.843,455.181 1234.435,454.9 1234.973,454.572 C1235.511,454.242 1235.99,453.843 1236.432,453.443 C1236.85,453.019 1237.23,452.59 1237.532,452.152 C1237.692,451.941 1237.826,451.724 1237.959,451.519 C1238.099,451.318 1238.217,451.118 1238.327,450.929 C1238.55,450.552 1238.72,450.206 1238.85,449.916 C1238.979,449.627 1239.088,449.399 1239.148,449.238 C1239.214,449.079 1239.249,448.994 1239.249,448.994 L1239.32,449.011 C1239.32,449.011 1239.296,449.1 1239.25,449.266 C1239.209,449.433 1239.139,449.677 1239.034,449.98 C1238.932,450.284 1238.794,450.651 1238.605,451.057 C1238.42,451.464 1238.193,451.917 1237.894,452.381 C1237.609,452.854 1237.241,453.328 1236.826,453.805 C1236.385,454.257 1235.904,454.73 1235.315,455.098 C1234.736,455.471 1234.086,455.796 1233.377,455.97 C1232.673,456.174 1231.929,456.231 1231.193,456.189 C1230.826,456.128 1230.448,456.11 1230.108,455.952 C1229.936,455.885 1229.757,455.835 1229.592,455.754 L1229.116,455.481 C1228.785,455.32 1228.531,455.054 1228.241,454.848 C1227.972,454.617 1227.731,454.357 1227.484,454.118 C1227.264,453.852 1227.038,453.599 1226.834,453.338 C1226.642,453.067 1226.443,452.809 1226.27,452.546 C1225.922,452.019 1225.622,451.503 1225.359,451.018 C1224.839,450.047 1224.484,449.201 1224.246,448.606 C1224.009,448.009 1223.895,447.659 1223.895,447.659 L1223.964,447.636" id="Fill-4" fill="#73BE8C" sketch:type="MSShapeGroup"/>
            <path d="M1221.043,459.521 C1221.043,459.521 1221.275,459.971 1221.682,460.761 C1221.882,461.153 1222.139,461.624 1222.443,462.156 C1222.756,462.68 1223.109,463.269 1223.494,463.915 C1223.89,464.547 1224.338,465.218 1224.846,465.893 C1225.359,466.567 1225.948,467.22 1226.546,467.89 C1226.873,468.19 1227.191,468.518 1227.539,468.804 C1227.908,469.05 1228.24,469.387 1228.647,469.565 L1229.232,469.885 C1229.432,469.976 1229.644,470.026 1229.849,470.101 C1230.253,470.285 1230.687,470.276 1231.107,470.347 L1231.264,470.377 L1231.401,470.377 L1231.78,470.376 C1232.023,470.368 1232.307,470.392 1232.516,470.358 C1232.945,470.295 1233.371,470.276 1233.814,470.14 C1234.698,469.948 1235.516,469.56 1236.259,469.107 C1237.003,468.651 1237.666,468.1 1238.275,467.546 C1238.854,466.96 1239.379,466.367 1239.797,465.762 C1240.018,465.47 1240.203,465.171 1240.387,464.887 C1240.581,464.61 1240.744,464.334 1240.895,464.072 C1241.203,463.55 1241.439,463.072 1241.619,462.672 C1241.797,462.272 1241.947,461.958 1242.03,461.735 C1242.121,461.514 1242.169,461.397 1242.169,461.397 L1242.267,461.421 C1242.267,461.421 1242.234,461.543 1242.172,461.772 C1242.114,462.004 1242.018,462.341 1241.872,462.76 C1241.731,463.18 1241.541,463.687 1241.279,464.248 C1241.024,464.811 1240.709,465.438 1240.297,466.078 C1239.903,466.732 1239.395,467.387 1238.82,468.047 C1238.211,468.672 1237.546,469.325 1236.732,469.834 C1235.931,470.349 1235.034,470.799 1234.054,471.04 C1233.081,471.322 1232.052,471.4 1231.035,471.343 C1230.527,471.259 1230.005,471.233 1229.535,471.015 C1229.297,470.922 1229.05,470.852 1228.821,470.741 L1228.163,470.363 C1227.706,470.141 1227.355,469.773 1226.955,469.489 C1226.582,469.168 1226.25,468.81 1225.908,468.479 C1225.604,468.112 1225.291,467.762 1225.01,467.4 C1224.744,467.027 1224.469,466.671 1224.229,466.306 C1223.75,465.578 1223.334,464.864 1222.971,464.195 C1222.252,462.853 1221.761,461.683 1221.431,460.86 C1221.105,460.036 1220.948,459.552 1220.948,459.552 L1221.043,459.521" id="Fill-5" fill="#73BE8C" sketch:type="MSShapeGroup"/>
            <path d="M1219.77,478.837 C1219.77,478.837 1220.04,479.419 1220.511,480.439 C1220.742,480.946 1221.041,481.555 1221.392,482.242 C1221.755,482.919 1222.164,483.681 1222.61,484.514 C1223.069,485.332 1223.587,486.197 1224.176,487.071 C1224.771,487.941 1225.454,488.785 1226.146,489.65 C1226.525,490.039 1226.893,490.462 1227.296,490.832 C1227.724,491.149 1228.108,491.585 1228.58,491.816 L1229.258,492.227 C1229.489,492.346 1229.736,492.411 1229.972,492.507 C1230.441,492.745 1230.943,492.734 1231.43,492.826 L1231.612,492.864 L1231.77,492.864 L1232.209,492.864 C1232.49,492.853 1232.82,492.883 1233.062,492.84 C1233.559,492.758 1234.053,492.734 1234.566,492.557 C1235.59,492.309 1236.538,491.809 1237.399,491.224 C1238.261,490.634 1239.028,489.922 1239.734,489.207 C1240.405,488.449 1241.013,487.683 1241.497,486.902 C1241.754,486.524 1241.968,486.137 1242.181,485.77 C1242.406,485.412 1242.594,485.056 1242.77,484.717 C1243.127,484.043 1243.4,483.426 1243.608,482.908 C1243.815,482.391 1243.989,481.985 1244.085,481.697 C1244.19,481.413 1244.246,481.261 1244.246,481.261 L1244.359,481.291 C1244.359,481.291 1244.321,481.451 1244.249,481.746 C1244.182,482.045 1244.071,482.48 1243.902,483.021 C1243.739,483.565 1243.518,484.22 1243.215,484.945 C1242.919,485.672 1242.555,486.483 1242.077,487.31 C1241.621,488.154 1241.032,489.001 1240.366,489.853 C1239.661,490.661 1238.89,491.504 1237.947,492.162 C1237.019,492.829 1235.979,493.409 1234.844,493.722 C1233.716,494.085 1232.524,494.186 1231.346,494.112 C1230.758,494.003 1230.154,493.971 1229.61,493.688 C1229.333,493.569 1229.047,493.478 1228.781,493.334 L1228.019,492.847 C1227.491,492.559 1227.083,492.084 1226.619,491.717 C1226.187,491.303 1225.803,490.84 1225.407,490.412 C1225.054,489.938 1224.692,489.484 1224.366,489.018 C1224.058,488.535 1223.74,488.075 1223.462,487.604 C1222.906,486.663 1222.425,485.742 1222.005,484.876 C1221.171,483.143 1220.602,481.631 1220.22,480.567 C1219.842,479.502 1219.66,478.877 1219.66,478.877 L1219.77,478.837" id="Fill-6" fill="#73BE8C" sketch:type="MSShapeGroup"/>
            <path d="M1216.267,500.406 C1216.267,500.406 1216.628,501.187 1217.26,502.556 C1217.571,503.237 1217.972,504.054 1218.443,504.976 C1218.93,505.884 1219.479,506.907 1220.078,508.025 C1220.693,509.123 1221.389,510.285 1222.18,511.456 C1222.977,512.624 1223.893,513.756 1224.823,514.918 C1225.331,515.439 1225.825,516.008 1226.366,516.503 C1226.941,516.93 1227.457,517.515 1228.089,517.824 L1228.999,518.377 C1229.309,518.535 1229.64,518.623 1229.957,518.752 C1230.587,519.072 1231.261,519.057 1231.914,519.179 L1232.159,519.231 L1232.37,519.231 L1232.959,519.23 C1233.337,519.216 1233.779,519.257 1234.104,519.199 C1234.772,519.089 1235.434,519.057 1236.123,518.82 C1237.497,518.487 1238.769,517.816 1239.925,517.029 C1241.081,516.239 1242.111,515.282 1243.058,514.323 C1243.958,513.306 1244.776,512.278 1245.424,511.23 C1245.768,510.723 1246.056,510.204 1246.341,509.712 C1246.644,509.23 1246.897,508.752 1247.132,508.297 C1247.61,507.392 1247.978,506.564 1248.257,505.871 C1248.535,505.177 1248.768,504.631 1248.897,504.245 C1249.038,503.862 1249.114,503.659 1249.114,503.659 L1249.265,503.701 C1249.265,503.701 1249.213,503.913 1249.117,504.311 C1249.028,504.712 1248.879,505.296 1248.651,506.022 C1248.432,506.752 1248.136,507.63 1247.729,508.603 C1247.332,509.579 1246.844,510.667 1246.202,511.777 C1245.59,512.911 1244.8,514.046 1243.906,515.191 C1242.96,516.275 1241.926,517.406 1240.66,518.289 C1239.415,519.184 1238.019,519.963 1236.495,520.381 C1234.982,520.869 1233.383,521.005 1231.802,520.906 C1231.013,520.76 1230.201,520.716 1229.471,520.337 C1229.1,520.177 1228.715,520.055 1228.36,519.862 L1227.337,519.207 C1226.627,518.821 1226.081,518.185 1225.457,517.69 C1224.879,517.135 1224.363,516.514 1223.831,515.94 C1223.357,515.304 1222.872,514.695 1222.435,514.07 C1222.022,513.422 1221.594,512.804 1221.221,512.172 C1220.475,510.909 1219.829,509.672 1219.265,508.511 C1218.147,506.184 1217.383,504.156 1216.87,502.728 C1216.363,501.299 1216.119,500.46 1216.119,500.46 L1216.267,500.406" id="Fill-7" fill="#73BE8C" sketch:type="MSShapeGroup"/>
            <path d="M1211.748,523.337 C1211.748,523.337 1212.209,524.333 1213.016,526.079 C1213.412,526.947 1213.922,527.988 1214.524,529.164 C1215.145,530.322 1215.845,531.625 1216.608,533.051 C1217.393,534.451 1218.28,535.933 1219.289,537.426 C1220.306,538.916 1221.473,540.359 1222.658,541.841 C1223.306,542.505 1223.936,543.23 1224.626,543.862 C1225.359,544.406 1226.016,545.153 1226.823,545.545 L1227.983,546.251 C1228.379,546.453 1228.8,546.565 1229.205,546.729 C1230.008,547.137 1230.867,547.118 1231.699,547.275 L1232.012,547.34 L1232.281,547.34 L1233.033,547.339 C1233.514,547.321 1234.077,547.372 1234.493,547.299 C1235.344,547.159 1236.188,547.118 1237.067,546.815 C1238.818,546.391 1240.441,545.535 1241.914,544.532 C1243.389,543.525 1244.702,542.305 1245.91,541.081 C1247.057,539.786 1248.099,538.475 1248.926,537.138 C1249.366,536.492 1249.732,535.83 1250.096,535.201 C1250.481,534.588 1250.804,533.979 1251.104,533.399 C1251.714,532.246 1252.183,531.19 1252.538,530.305 C1252.892,529.419 1253.19,528.725 1253.354,528.231 C1253.534,527.744 1253.63,527.485 1253.63,527.485 L1253.824,527.537 C1253.824,527.537 1253.758,527.809 1253.635,528.315 C1253.521,528.827 1253.331,529.571 1253.041,530.498 C1252.762,531.428 1252.384,532.549 1251.865,533.79 C1251.359,535.034 1250.736,536.42 1249.919,537.836 C1249.137,539.281 1248.13,540.729 1246.99,542.189 C1245.784,543.57 1244.466,545.012 1242.851,546.139 C1241.264,547.28 1239.484,548.273 1237.542,548.807 C1235.612,549.429 1233.573,549.602 1231.557,549.476 C1230.551,549.289 1229.516,549.233 1228.585,548.75 C1228.113,548.546 1227.622,548.39 1227.168,548.145 L1225.864,547.31 C1224.959,546.818 1224.262,546.005 1223.468,545.376 C1222.73,544.668 1222.072,543.876 1221.394,543.144 C1220.79,542.333 1220.17,541.556 1219.614,540.759 C1219.087,539.932 1218.541,539.145 1218.066,538.34 C1217.115,536.729 1216.291,535.152 1215.572,533.672 C1214.146,530.705 1213.172,528.117 1212.518,526.298 C1211.872,524.476 1211.56,523.406 1211.56,523.406 L1211.748,523.337" id="Fill-8" fill="#73BE8C" sketch:type="MSShapeGroup"/>
            <path d="M923.257,569.87 C729.172,569.87 548.545,591.081 405.971,626 L1436.586,626 C1296.585,591.081 1117.911,569.87 923.257,569.87" id="Fill-9" fill="#84C595" sketch:type="MSShapeGroup"/>
            <path d="M1037.949,590.661 C1035.166,597.026 1031.656,603.736 1028.808,604.942 C1025.919,606.164 1023.369,606.819 1021.307,606.819 C1019.331,606.819 1017.801,606.219 1016.843,604.942 C1014.885,602.331 1015.756,595.588 1015.756,595.588 L1015.736,594.89 C1013.258,595.331 1010.708,595.56 1008.103,595.56 C1006.019,595.56 1003.969,595.413 1001.965,595.129 L1001.952,595.588 C1001.952,595.588 1002.822,602.331 1000.864,604.942 C999.906,606.219 998.377,606.819 996.401,606.819 C994.338,606.819 991.789,606.164 988.899,604.942 C986.092,603.754 982.642,597.219 979.879,590.937 C961.108,593.193 948.43,597.483 948.43,602.405 C948.43,609.671 976.052,615.56 1010.126,615.56 C1044.199,615.56 1071.822,609.671 1071.822,602.405 C1071.822,597.274 1058.046,592.829 1037.949,590.661" id="Fill-10" fill="#6A9171" sketch:type="MSShapeGroup"/>
            <path d="M998.439,481.98 C997.31,490.546 991.615,496.86 985.718,496.082 C979.821,495.304 975.956,487.73 977.084,479.165 C978.214,470.599 983.91,464.287 989.808,465.065 C995.704,465.842 999.569,473.415 998.439,481.98" id="Fill-11" fill="#141514" sketch:type="MSShapeGroup"/>
            <path d="M993.746,473.843 C993.746,476.397 991.676,478.468 989.122,478.468 C986.567,478.468 984.497,476.397 984.497,473.843 C984.497,471.289 986.567,469.218 989.122,469.218 C991.676,469.218 993.746,471.289 993.746,473.843" id="Fill-12" fill="#FFFFFF" sketch:type="MSShapeGroup"/>
            <path d="M1018.364,481.98 C1019.494,490.546 1025.189,496.86 1031.086,496.082 C1036.983,495.304 1040.848,487.73 1039.719,479.165 C1038.59,470.599 1032.894,464.287 1026.996,465.065 C1021.1,465.842 1017.235,473.415 1018.364,481.98" id="Fill-13" fill="#141514" sketch:type="MSShapeGroup"/>
            <path d="M1023.058,473.843 C1023.058,476.397 1025.128,478.468 1027.682,478.468 C1030.236,478.468 1032.307,476.397 1032.307,473.843 C1032.307,471.289 1030.236,469.218 1027.682,469.218 C1025.128,469.218 1023.058,471.289 1023.058,473.843" id="Fill-14" fill="#FFFFFF" sketch:type="MSShapeGroup"/>
            <path d="M974.977,578.445 C974.977,578.445 983.243,602.548 988.899,604.942 C994.556,607.335 998.907,607.553 1000.864,604.942 C1002.822,602.331 1001.952,595.588 1001.952,595.588 L1002.146,588.592 C1002.146,588.592 992.598,576.924 974.977,578.445" id="Fill-15" fill="#0A0B09" sketch:type="MSShapeGroup"/>
            <path d="M1042.731,578.445 C1042.731,578.445 1034.463,602.548 1028.808,604.942 C1023.151,607.335 1018.801,607.553 1016.843,604.942 C1014.885,602.331 1015.756,595.588 1015.756,595.588 L1015.562,588.592 C1015.562,588.592 1025.11,576.924 1042.731,578.445" id="Fill-16" fill="#0A0B09" sketch:type="MSShapeGroup"/>
            <path d="M1045.74,553.414 C1045.74,573.817 1028.89,590.357 1008.103,590.357 C987.318,590.357 970.467,573.817 970.467,553.414 C970.467,533.012 987.318,516.472 1008.103,516.472 C1028.89,516.472 1045.74,533.012 1045.74,553.414" id="Fill-17" fill="#FFFFFF" sketch:type="MSShapeGroup"/>
            <path d="M1008.103,595.56 C984.482,595.56 965.264,576.654 965.264,553.414 C965.264,530.175 984.482,511.269 1008.103,511.269 C1031.725,511.269 1050.943,530.175 1050.943,553.414 C1050.943,576.654 1031.725,595.56 1008.103,595.56 M1008.103,521.675 C990.22,521.675 975.67,535.914 975.67,553.414 C975.67,570.915 990.22,585.154 1008.103,585.154 C1025.987,585.154 1040.537,570.915 1040.537,553.414 C1040.537,535.914 1025.987,521.675 1008.103,521.675" id="Fill-18" fill="#0A0B09" sketch:type="MSShapeGroup"/>
            <path d="M980.841,536.237 C977.57,541.192 975.67,547.09 975.67,553.414 C975.67,568.767 986.866,581.609 1001.688,584.53 C1003.966,584.961 1006.154,585.141 1008.209,585.141 C1009.076,585.141 1009.92,585.109 1010.737,585.05 C1015.508,584.673 1019.994,583.28 1023.962,581.095 C1024.848,579.123 994.897,564.687 994.897,544.244 C994.897,543.32 994.932,542.403 995.002,541.497 C989.958,540.347 985.208,538.565 980.841,536.237" id="Fill-19" fill="#E1DEDC" sketch:type="MSShapeGroup"/>
            <path d="M1023.962,581.095 C1019.994,583.28 1015.508,584.673 1010.737,585.05 C1017.58,584.561 1022.561,582.213 1023.887,581.186 C1023.921,581.16 1023.946,581.129 1023.962,581.095 M976.348,533.561 C974.57,537.791 973.589,542.427 973.589,547.287 C973.589,567.182 986.171,580.341 998.785,583.853 C999.767,584.126 1000.735,584.35 1001.688,584.53 C986.866,581.609 975.67,568.767 975.67,553.414 C975.67,547.09 977.57,541.192 980.841,536.237 C979.295,535.413 977.794,534.518 976.348,533.561" id="Fill-20" fill="#0B0C0A" sketch:type="MSShapeGroup"/>
            <path d="M1036.427,460.512 C1036.427,451.504 1043.731,446.461 1052.742,446.461 C1061.752,446.461 1069.058,453.763 1069.058,462.77 C1069.058,471.778 1063.22,479.079 1054.209,479.079 C1048.862,479.079 1050.201,476.51 1046.805,472.538 L1036.427,460.512" id="Fill-21" fill="#0A0B09" sketch:type="MSShapeGroup"/>
            <path d="M1054.209,481.161 C1049.726,481.161 1048.475,479.418 1047.198,476.957 C1046.73,476.056 1046.026,475.032 1045.05,473.891 L1034,461.286 L1034,460.512 C1034,451.014 1041.738,444.379 1052.569,444.379 C1062.713,444.379 1071.053,452.629 1071.053,462.77 C1071.053,473.426 1064.019,481.161 1054.209,481.161 M1038.53,459.764 L1048.38,471.179 C1049.674,472.691 1050.378,474.048 1050.893,475.04 C1051.793,476.776 1051.909,476.999 1054.209,476.999 C1061.607,476.999 1066.977,471.015 1066.977,462.77 C1066.977,454.924 1060.59,448.542 1052.742,448.542 C1042.706,448.542 1038.856,454.425 1038.53,459.764" id="Fill-22" fill="#0A0B09" sketch:type="MSShapeGroup"/>
            <path d="M979.563,460.512 C979.563,451.504 972.258,446.461 963.247,446.461 C954.236,446.461 946.931,453.763 946.931,462.77 C946.931,471.778 952.769,479.079 961.78,479.079 C967.127,479.079 965.787,476.51 969.184,472.538 L979.563,460.512" id="Fill-23" fill="#0A0B09" sketch:type="MSShapeGroup"/>
            <path d="M961.78,481.161 C951.97,481.161 944.85,473.426 944.85,462.77 C944.85,452.629 953.281,444.379 963.425,444.379 C974.257,444.379 982,451.014 982,460.512 L982,461.286 L970.938,473.898 C969.968,475.033 969.348,476.056 968.88,476.958 C967.603,479.419 966.263,481.161 961.78,481.161 M963.247,448.542 C955.398,448.542 949.013,454.924 949.013,462.77 C949.013,471.015 954.382,476.999 961.78,476.999 C964.08,476.999 964.196,476.776 965.096,475.04 C965.611,474.048 966.315,472.691 967.602,471.185 L977.459,459.764 C977.134,454.425 973.283,448.542 963.247,448.542" id="Fill-24" fill="#0A0B09" sketch:type="MSShapeGroup"/>
            <path d="M973.556,462.781 C973.556,468.194 969.17,472.58 963.757,472.58 C958.346,472.58 953.958,468.194 953.958,462.781 C953.958,457.37 958.346,452.982 963.757,452.982 C969.17,452.982 973.556,457.37 973.556,462.781" id="Fill-25" fill="#FFFFFF" sketch:type="MSShapeGroup"/>
            <path d="M1062.01,462.781 C1062.01,468.194 1057.624,472.58 1052.211,472.58 C1046.8,472.58 1042.413,468.194 1042.413,462.781 C1042.413,457.37 1046.8,452.982 1052.211,452.982 C1057.624,452.982 1062.01,457.37 1062.01,462.781" id="Fill-26" fill="#FFFFFF" sketch:type="MSShapeGroup"/>
            <path d="M1008.538,543 L1008.523,543 C977.449,543 953.107,520.076 953.107,490.714 C953.107,462.516 975.896,442.893 1008.526,442.804 C1040.143,442.896 1063.968,463.351 1063.968,490.648 C1063.968,519.024 1038.591,543 1008.552,543 L1008.538,543 M1008.525,451.262 C980.807,451.337 961.432,467.668 961.432,490.978 C961.432,515.683 982.12,535.107 1008.536,535.203 C1034.072,535.103 1055.642,514.853 1055.642,490.978 C1055.642,465.27 1031.366,451.328 1008.525,451.262" id="Fill-27" fill="#0A0B09" sketch:type="MSShapeGroup"/>
            <path d="M1057.577,491.41 C1057.577,515.952 1035,536.889 1008.434,536.889 C981.867,536.889 959.29,516.993 959.29,492.45 C959.29,467.906 981.867,448.011 1008.434,448.011 C1035,448.011 1057.577,466.865 1057.577,491.41" id="Fill-28" fill="#FFFFFF" sketch:type="MSShapeGroup"/>
            <path d="M1018.293,500.797 C1018.293,503.815 1014.042,506.26 1008.797,506.26 C1003.553,506.26 999.301,503.815 999.301,500.797 C999.301,498.404 999.894,496.37 1003.615,495.632 C1004.587,495.438 1007.711,495.334 1008.797,495.334 C1009.934,495.334 1013.106,495.448 1014.116,495.659 C1017.767,496.421 1018.293,498.433 1018.293,500.797" id="Fill-29" fill="#0A0B09" sketch:type="MSShapeGroup"/>
            <path d="M1012,514.398 C1012,515.835 1010.835,517 1009.398,517 L1008.602,517 C1007.165,517 1006,515.835 1006,514.398 L1006,506.602 C1006,505.165 1007.165,504 1008.602,504 L1009.398,504 C1010.835,504 1012,505.165 1012,506.602 L1012,514.398" id="Fill-30" fill="#0A0B09" sketch:type="MSShapeGroup"/>
            <path d="M1023.02,510.705 C1023.02,514.201 1016.798,517.036 1009.122,517.036 C1001.448,517.036 993.925,513.724 993.925,510.228 C993.925,506.732 1001.123,512.049 1008.797,512.049 C1016.473,512.049 1023.02,507.209 1023.02,510.705" id="Fill-31" fill="#0A0B09" sketch:type="MSShapeGroup"/>
            <path d="M1012.916,499.757 C1012.916,500.734 1010.498,501.526 1008.797,501.526 C1007.097,501.526 1004.678,500.734 1004.678,499.757 C1004.678,498.98 1005.911,498.321 1007.117,498.082 C1007.432,498.019 1008.446,497.986 1008.797,497.986 C1009.166,497.986 1010.193,498.023 1010.521,498.091 C1011.705,498.338 1012.916,498.99 1012.916,499.757" id="Fill-32" fill="#E7EAE0" sketch:type="MSShapeGroup"/>
            <path d="M959.294,493.025 C959.642,517.279 982.03,536.851 1008.356,536.889 C982.031,536.851 959.642,517.279 959.294,493.025 M1008.434,448.011 C981.867,448.011 959.29,467.906 959.29,492.45 C959.29,467.906 981.867,448.011 1008.434,448.011" id="Fill-33" fill="#0B0C0A" sketch:type="MSShapeGroup"/>
            <path d="M1008.434,448.011 C981.867,448.011 959.29,467.906 959.29,492.45 C959.29,492.642 959.291,492.834 959.294,493.025 C959.642,517.279 982.031,536.851 1008.356,536.889 L1008.434,536.889 C1007.372,536.889 1006.322,536.845 1005.275,536.784 C1006.659,536.699 1008.031,536.558 1009.387,536.363 C986.147,533.094 967.615,514.684 967.615,492.45 C967.615,470.154 986.247,451.706 1009.576,448.513 C1008.183,448.326 1006.774,448.192 1005.35,448.111 C1006.372,448.052 1007.399,448.011 1008.434,448.011" id="Fill-34" fill="#E1DEDC" sketch:type="MSShapeGroup"/>
            <path d="M1008.434,448.011 C1009.856,448.011 1011.265,448.076 1012.662,448.182 C1011.626,448.263 1010.595,448.373 1009.576,448.513 C1032.808,451.626 1051.333,469.179 1051.333,491.41 C1051.333,513.701 1032.709,533.006 1009.387,536.363 C1010.427,536.509 1011.476,536.625 1012.534,536.709 C1011.178,536.819 1009.812,536.889 1008.434,536.889 C1035,536.889 1057.577,515.952 1057.577,491.41 C1057.577,466.865 1035,448.011 1008.434,448.011" id="Fill-35" fill="#F1EFEE" sketch:type="MSShapeGroup"/>
            <path d="M1009.387,536.363 C1008.031,536.558 1006.659,536.699 1005.275,536.784 C1006.322,536.845 1007.372,536.889 1008.434,536.889 C1009.812,536.889 1011.178,536.819 1012.534,536.709 C1011.476,536.625 1010.427,536.509 1009.387,536.363 M1008.434,448.011 L1008.434,448.011 C1007.399,448.011 1006.372,448.052 1005.35,448.111 C1006.774,448.192 1008.183,448.326 1009.576,448.513 C1010.595,448.373 1011.626,448.263 1012.662,448.182 C1011.265,448.076 1009.856,448.011 1008.434,448.011" id="Fill-36" fill="#D3D0CD" sketch:type="MSShapeGroup"/>
            <path d="M966.281,544.545 C966.281,544.545 942.856,529.824 953.662,513.117 C964.468,496.412 978.346,505.298 978.761,505.568 C979.177,505.839 983.914,508.634 976.527,520.817 C969.14,533 979.384,530.314 979.384,530.314 C979.384,530.314 974.557,544.431 966.281,544.545" id="Fill-37" fill="#0A0B09" sketch:type="MSShapeGroup"/>
            <path d="M1048.585,544.179 C1048.585,544.179 1075.002,535.962 1068.846,517.042 C1062.689,498.123 1046.995,503.149 1046.524,503.305 C1046.053,503.46 1040.757,504.945 1044.77,518.616 C1048.783,532.286 1039.572,527.062 1039.572,527.062 C1039.572,527.062 1040.615,541.945 1048.585,544.179" id="Fill-38" fill="#0A0B09" sketch:type="MSShapeGroup"/>
            <path d="M998.439,481.98 C997.31,490.546 991.615,496.86 985.718,496.082 C979.821,495.304 975.956,487.73 977.084,479.165 C978.214,470.599 983.91,464.287 989.808,465.065 C995.704,465.842 999.569,473.415 998.439,481.98" id="Fill-39" fill="#0A0B09" sketch:type="MSShapeGroup"/>
            <path d="M993.746,473.843 C993.746,476.397 991.676,478.469 989.122,478.469 C986.567,478.469 984.497,476.397 984.497,473.843 C984.497,471.289 986.567,469.218 989.122,469.218 C991.676,469.218 993.746,471.289 993.746,473.843" id="Fill-40" fill="#FFFFFF" sketch:type="MSShapeGroup"/>
            <path d="M1018.364,481.98 C1019.494,490.546 1025.189,496.86 1031.086,496.082 C1036.983,495.304 1040.848,487.73 1039.719,479.165 C1038.59,470.599 1032.894,464.287 1026.996,465.065 C1021.1,465.842 1017.235,473.415 1018.364,481.98" id="Fill-41" fill="#0A0B09" sketch:type="MSShapeGroup"/>
            <path d="M1023.058,473.843 C1023.058,476.397 1025.128,478.469 1027.682,478.469 C1030.236,478.469 1032.307,476.397 1032.307,473.843 C1032.307,471.289 1030.236,469.218 1027.682,469.218 C1025.128,469.218 1023.058,471.289 1023.058,473.843" id="Fill-42" fill="#FFFFFF" sketch:type="MSShapeGroup"/>
            <path d="M1273.744,541.065 C1273.744,549.983 1275.408,563.473 1272.877,571.069 C1271.224,576.024 1265.57,576.877 1263.179,576.877 C1260.91,576.877 1254.333,574.66 1252.445,569.976 C1249.295,562.164 1251.713,550.54 1251.713,541.329 C1251.713,526.594 1257.126,524.318 1263.179,524.318 C1269.234,524.318 1273.744,526.331 1273.744,541.065" id="Fill-43" fill="#E88582" sketch:type="MSShapeGroup"/>
            <path d="M1263.179,577.063 C1260.955,577.063 1254.232,574.905 1252.273,570.045 C1250.046,564.519 1250.579,557.148 1251.096,550.02 C1251.319,546.957 1251.528,544.065 1251.528,541.329 C1251.528,526.176 1257.418,524.134 1263.179,524.134 C1268.618,524.134 1273.929,525.442 1273.929,541.065 C1273.929,543.476 1274.051,546.208 1274.178,549.1 C1274.521,556.814 1274.909,565.556 1273.051,571.126 C1271.129,576.896 1263.987,577.063 1263.179,577.063 L1263.179,577.063 Z M1263.179,524.503 C1257.32,524.503 1251.898,526.541 1251.898,541.329 C1251.898,544.078 1251.687,546.978 1251.465,550.047 C1250.951,557.132 1250.42,564.459 1252.616,569.907 C1254.421,574.384 1260.838,576.694 1263.179,576.694 C1263.96,576.694 1270.86,576.534 1272.701,571.01 C1274.536,565.503 1274.15,556.797 1273.809,549.117 C1273.682,546.221 1273.559,543.485 1273.559,541.065 C1273.559,527.214 1269.753,524.503 1263.179,524.503 L1263.179,524.503 Z" id="Fill-44" fill="#F0ADA9" sketch:type="MSShapeGroup"/>
            <path d="M1262.633,537.268 C1262.633,537.268 1262.658,537.558 1262.706,538.103 C1262.748,538.647 1262.838,539.446 1262.895,540.462 C1262.962,541.477 1263.042,542.712 1263.135,544.127 C1263.232,545.542 1263.338,547.14 1263.391,548.882 C1263.461,550.623 1263.536,552.51 1263.616,554.508 C1263.696,556.503 1263.792,558.609 1263.819,560.786 C1263.854,562.963 1263.934,565.214 1263.934,567.5 C1263.949,569.786 1263.964,572.11 1263.98,574.433 C1263.964,576.755 1263.948,579.078 1263.932,581.365 C1263.927,583.651 1263.852,585.902 1263.815,588.08 C1263.79,590.257 1263.688,592.362 1263.611,594.358 C1263.532,596.354 1263.458,598.241 1263.388,599.984 C1263.336,601.725 1263.227,603.323 1263.132,604.738 C1263.04,606.154 1262.961,607.387 1262.894,608.404 C1262.838,609.419 1262.748,610.218 1262.705,610.762 C1262.658,611.307 1262.633,611.597 1262.633,611.597 L1262.474,611.597 C1262.474,611.597 1262.435,593.014 1262.396,574.433 C1262.435,555.85 1262.474,537.268 1262.474,537.268 L1262.633,537.268" id="Fill-45" fill="#F0ADA9" sketch:type="MSShapeGroup"/>
            <path d="M1254.17,537.355 C1254.17,537.355 1254.354,537.711 1254.677,538.337 C1254.836,538.65 1255.041,539.024 1255.281,539.446 C1255.529,539.861 1255.809,540.33 1256.115,540.841 C1256.429,541.343 1256.785,541.874 1257.187,542.411 C1257.594,542.946 1258.062,543.463 1258.537,543.996 C1258.796,544.234 1259.048,544.494 1259.324,544.721 C1259.618,544.916 1259.881,545.184 1260.203,545.326 L1260.668,545.578 C1260.826,545.652 1260.995,545.69 1261.158,545.749 C1261.478,545.897 1261.823,545.89 1262.155,545.946 L1262.281,545.969 L1262.388,545.969 L1262.689,545.968 C1262.882,545.962 1263.106,545.98 1263.273,545.953 C1263.614,545.904 1263.952,545.89 1264.304,545.781 C1265.005,545.628 1265.654,545.323 1266.243,544.961 C1266.834,544.6 1267.36,544.162 1267.844,543.723 C1268.303,543.258 1268.72,542.787 1269.051,542.307 C1269.227,542.076 1269.373,541.837 1269.518,541.613 C1269.673,541.393 1269.803,541.174 1269.923,540.966 C1270.168,540.552 1270.354,540.172 1270.496,539.856 C1270.638,539.537 1270.758,539.288 1270.823,539.111 C1270.894,538.936 1270.933,538.843 1270.933,538.843 L1271.011,538.862 C1271.011,538.862 1270.984,538.959 1270.935,539.142 C1270.89,539.325 1270.814,539.592 1270.698,539.924 C1270.587,540.258 1270.434,540.662 1270.227,541.106 C1270.025,541.552 1269.775,542.049 1269.448,542.558 C1269.135,543.077 1268.732,543.597 1268.276,544.12 C1267.793,544.617 1267.266,545.133 1266.619,545.537 C1265.983,545.948 1265.271,546.303 1264.494,546.495 C1263.721,546.719 1262.904,546.781 1262.099,546.735 C1261.695,546.669 1261.282,546.648 1260.908,546.475 C1260.719,546.402 1260.523,546.345 1260.343,546.258 L1259.819,545.958 C1259.457,545.782 1259.178,545.49 1258.861,545.264 C1258.565,545.01 1258.302,544.726 1258.03,544.463 C1257.789,544.171 1257.541,543.894 1257.317,543.607 C1257.107,543.31 1256.888,543.029 1256.698,542.739 C1256.318,542.162 1255.988,541.595 1255.7,541.064 C1255.13,539.998 1254.739,539.071 1254.478,538.416 C1254.219,537.763 1254.094,537.378 1254.094,537.378 L1254.17,537.355" id="Fill-46" fill="#F0ADA9" sketch:type="MSShapeGroup"/>
            <path d="M1254.17,550.035 C1254.17,550.035 1254.354,550.392 1254.677,551.018 C1254.836,551.33 1255.041,551.705 1255.281,552.125 C1255.529,552.541 1255.809,553.01 1256.115,553.521 C1256.429,554.023 1256.785,554.555 1257.187,555.091 C1257.594,555.625 1258.062,556.143 1258.537,556.675 C1258.796,556.915 1259.048,557.174 1259.324,557.4 C1259.618,557.595 1259.881,557.864 1260.203,558.005 L1260.668,558.257 C1260.826,558.331 1260.995,558.37 1261.158,558.43 C1261.478,558.576 1261.823,558.569 1262.155,558.626 L1262.281,558.649 L1262.388,558.649 L1262.689,558.648 C1262.882,558.642 1263.106,558.661 1263.273,558.634 C1263.614,558.583 1263.952,558.569 1264.304,558.461 C1265.005,558.308 1265.654,558 1266.243,557.641 C1266.834,557.28 1267.36,556.842 1267.844,556.403 C1268.303,555.939 1268.72,555.467 1269.051,554.988 C1269.227,554.755 1269.373,554.518 1269.518,554.293 C1269.673,554.073 1269.803,553.853 1269.923,553.646 C1270.168,553.231 1270.354,552.852 1270.496,552.535 C1270.638,552.218 1270.758,551.968 1270.823,551.791 C1270.894,551.617 1270.933,551.524 1270.933,551.524 L1271.011,551.542 C1271.011,551.543 1270.984,551.639 1270.935,551.822 C1270.89,552.005 1270.814,552.271 1270.698,552.605 C1270.587,552.939 1270.434,553.341 1270.227,553.785 C1270.025,554.232 1269.775,554.73 1269.448,555.238 C1269.135,555.756 1268.732,556.277 1268.276,556.8 C1267.793,557.296 1267.266,557.814 1266.619,558.218 C1265.983,558.627 1265.271,558.984 1264.494,559.175 C1263.721,559.399 1262.904,559.46 1262.099,559.415 C1261.695,559.349 1261.282,559.329 1260.908,559.156 C1260.719,559.081 1260.523,559.026 1260.343,558.938 L1259.819,558.638 C1259.457,558.461 1259.178,558.17 1258.861,557.945 C1258.565,557.69 1258.302,557.407 1258.03,557.142 C1257.789,556.851 1257.541,556.573 1257.317,556.286 C1257.107,555.991 1256.888,555.708 1256.698,555.418 C1256.318,554.84 1255.988,554.275 1255.7,553.745 C1255.13,552.679 1254.739,551.75 1254.478,551.096 C1254.219,550.443 1254.094,550.058 1254.094,550.058 L1254.17,550.035" id="Fill-47" fill="#F0ADA9" sketch:type="MSShapeGroup"/>
            <path d="M1254.207,561.118 C1254.207,561.118 1254.437,561.455 1254.84,562.047 C1255.039,562.337 1255.281,562.69 1255.557,563.094 C1255.837,563.486 1256.153,563.928 1256.498,564.411 C1256.851,564.878 1257.242,565.37 1257.648,565.877 C1258.064,566.377 1258.539,566.855 1259.008,567.335 C1259.262,567.545 1259.508,567.779 1259.771,567.972 L1260.174,568.241 C1260.301,568.346 1260.433,568.427 1260.572,568.491 L1260.975,568.712 C1261.112,568.773 1261.253,568.8 1261.388,568.85 C1261.658,568.98 1261.937,568.957 1262.206,569.009 L1262.308,569.032 L1262.232,569.031 L1262.674,569.031 C1262.86,569.025 1263.108,569.042 1263.242,569.018 C1263.525,568.969 1263.8,568.967 1264.12,568.869 C1264.74,568.728 1265.343,568.511 1265.894,568.201 C1266.449,567.898 1266.96,567.515 1267.436,567.125 C1267.883,566.7 1268.324,566.288 1268.684,565.853 C1268.875,565.641 1269.036,565.423 1269.197,565.215 C1269.367,565.013 1269.511,564.809 1269.647,564.614 C1269.916,564.224 1270.152,563.874 1270.33,563.574 C1270.508,563.274 1270.664,563.036 1270.75,562.867 C1270.844,562.699 1270.894,562.609 1270.894,562.609 L1271.051,562.646 C1271.051,562.646 1271.023,562.744 1270.974,562.927 C1270.929,563.111 1270.854,563.379 1270.738,563.713 C1270.627,564.048 1270.476,564.453 1270.27,564.899 C1270.068,565.349 1269.819,565.849 1269.492,566.362 C1269.179,566.882 1268.775,567.406 1268.318,567.933 C1267.836,568.435 1267.305,568.957 1266.654,569.367 C1266.016,569.782 1265.297,570.144 1264.512,570.339 C1264.13,570.466 1263.718,570.505 1263.31,570.569 C1262.9,570.596 1262.522,570.624 1262.093,570.588 C1261.682,570.52 1261.261,570.498 1260.884,570.322 C1260.692,570.247 1260.493,570.189 1260.309,570.099 L1259.782,569.795 C1259.416,569.614 1259.136,569.321 1258.816,569.09 C1258.519,568.833 1258.256,568.548 1257.983,568.282 C1257.741,567.989 1257.492,567.708 1257.268,567.419 C1257.057,567.122 1256.841,566.836 1256.65,566.546 C1256.269,565.964 1255.942,565.397 1255.654,564.864 C1255.087,563.795 1254.698,562.864 1254.437,562.208 C1254.182,561.552 1254.057,561.166 1254.057,561.166 L1254.207,561.118" id="Fill-48" fill="#F0ADA9" sketch:type="MSShapeGroup"/>
            <path d="M847.9,242 C849.68,240.27 850.763,237.492 850.763,234.613 C850.763,228.404 845.73,223.423 839.52,223.423 C838.601,223.423 837.714,223.572 836.86,223.779 C835.263,219.513 831.161,216.484 826.338,216.484 C824.629,216.484 823.015,216.883 821.565,217.566 C819.267,211.359 813.312,206.931 806.307,206.931 C797.314,206.931 790.023,214.223 790.023,223.216 L790.03,223.351 C785.663,224.894 782.528,228.941 782.528,233.837 C782.528,237.115 783.939,240.27 786.177,242 L847.9,242" id="Fill-49" fill="#FEFDFB" sketch:type="MSShapeGroup"/>
            <path d="M1356.873,265 C1360.76,261.571 1363.127,255.066 1363.127,248.775 C1363.127,235.212 1352.132,224.288 1338.567,224.288 C1336.561,224.288 1334.622,224.591 1332.757,225.044 C1329.269,215.725 1320.308,209.099 1309.773,209.099 C1306.04,209.099 1302.515,209.964 1299.347,211.454 C1294.327,197.898 1281.32,188.222 1266.017,188.222 C1246.375,188.222 1230.449,204.148 1230.449,223.793 C1230.449,223.892 1230.462,223.988 1230.463,224.087 C1220.925,227.457 1214.077,236.386 1214.077,247.08 C1214.077,254.241 1217.158,261.571 1222.049,265 L1356.873,265" id="Fill-50" fill="#FEFDFB" sketch:type="MSShapeGroup"/>
            <path d="M695.879,571.486 L705.515,511.777 L715.15,571.486 L695.879,571.486" id="Fill-51" fill="#538F67" sketch:type="MSShapeGroup"/>
            <path d="M705.318,524.22 L704.614,581.37 L706.797,581.37 L705.706,524.22 L705.318,524.22" id="Fill-52" fill="#73BE8C" sketch:type="MSShapeGroup"/>
            <path d="M702.961,532.876 C702.961,532.876 703.014,532.979 703.107,533.16 C703.153,533.249 703.212,533.357 703.281,533.479 C703.353,533.599 703.434,533.734 703.521,533.88 C703.612,534.025 703.714,534.178 703.831,534.333 C703.947,534.486 704.082,534.636 704.218,534.789 L704.445,534.997 C704.53,535.054 704.605,535.132 704.699,535.171 L704.833,535.244 L704.974,535.294 C705.066,535.336 705.165,535.333 705.261,535.35 L705.297,535.356 L705.415,535.356 L705.583,535.354 C705.681,535.339 705.778,535.333 705.88,535.303 C706.081,535.26 706.269,535.17 706.438,535.068 C706.608,534.963 706.759,534.836 706.899,534.711 C707.031,534.576 707.152,534.44 707.247,534.303 L707.381,534.102 L707.498,533.916 C707.568,533.798 707.622,533.688 707.663,533.596 C707.704,533.504 707.738,533.433 707.757,533.382 L707.789,533.305 L707.811,533.31 L707.789,533.391 C707.777,533.443 707.754,533.521 707.721,533.616 C707.689,533.713 707.645,533.828 707.585,533.956 C707.527,534.086 707.455,534.229 707.361,534.374 C707.271,534.525 707.155,534.674 707.023,534.824 C706.884,534.967 706.732,535.117 706.546,535.232 C706.364,535.351 706.158,535.453 705.934,535.508 C705.712,535.573 705.477,535.591 705.245,535.578 C705.128,535.558 705.009,535.553 704.901,535.502 L704.739,535.44 L704.588,535.354 C704.484,535.303 704.403,535.219 704.312,535.153 L704.073,534.923 L703.868,534.677 L703.69,534.427 C703.58,534.259 703.485,534.097 703.402,533.946 C703.237,533.638 703.125,533.371 703.05,533.183 C702.975,532.994 702.939,532.884 702.939,532.884 L702.961,532.876" id="Fill-53" fill="#73BE8C" sketch:type="MSShapeGroup"/>
            <path d="M702.038,536.63 C702.038,536.63 702.111,536.772 702.24,537.022 C702.303,537.146 702.385,537.294 702.48,537.461 C702.58,537.627 702.691,537.813 702.812,538.017 C702.938,538.219 703.079,538.429 703.24,538.643 C703.402,538.857 703.588,539.061 703.777,539.273 C703.88,539.368 703.98,539.472 704.09,539.562 C704.207,539.64 704.311,539.747 704.44,539.803 L704.625,539.903 L704.82,539.972 C704.948,540.03 705.084,540.028 705.217,540.049 L705.267,540.058 L705.43,540.058 L705.662,540.053 C705.798,540.033 705.932,540.028 706.073,539.984 C706.352,539.923 706.61,539.801 706.845,539.658 C707.08,539.514 707.289,539.339 707.481,539.166 C707.664,538.979 707.83,538.793 707.962,538.602 C708.032,538.51 708.091,538.416 708.148,538.325 L708.309,538.067 C708.406,537.903 708.481,537.752 708.538,537.626 C708.594,537.498 708.641,537.4 708.668,537.328 L708.712,537.221 L708.742,537.23 L708.712,537.341 C708.694,537.415 708.664,537.52 708.617,537.653 C708.573,537.785 708.513,537.946 708.43,538.123 C708.349,538.301 708.25,538.5 708.12,538.701 C707.996,538.908 707.835,539.114 707.654,539.324 C707.462,539.52 707.251,539.727 706.994,539.888 C706.741,540.051 706.458,540.191 706.148,540.268 C705.841,540.357 705.516,540.382 705.194,540.365 C705.034,540.337 704.87,540.33 704.721,540.26 L704.495,540.173 L704.288,540.055 C704.144,539.984 704.033,539.868 703.906,539.778 C703.788,539.677 703.683,539.563 703.575,539.459 C703.479,539.344 703.38,539.232 703.292,539.12 C703.207,539.001 703.121,538.889 703.045,538.774 C702.893,538.543 702.762,538.318 702.647,538.107 C702.421,537.683 702.265,537.313 702.161,537.053 C702.058,536.793 702.009,536.64 702.009,536.64 L702.038,536.63" id="Fill-54" fill="#73BE8C" sketch:type="MSShapeGroup"/>
            <path d="M701.636,542.731 C701.636,542.731 701.722,542.915 701.87,543.237 C701.944,543.398 702.037,543.589 702.149,543.806 C702.263,544.021 702.393,544.26 702.534,544.523 C702.678,544.782 702.842,545.057 703.028,545.332 C703.216,545.607 703.432,545.873 703.651,546.146 C703.77,546.27 703.886,546.404 704.014,546.521 C704.149,546.62 704.27,546.758 704.419,546.83 L704.633,546.961 L704.859,547.049 C705.007,547.124 705.165,547.12 705.319,547.15 L705.377,547.163 L705.565,547.163 L705.835,547.154 C705.992,547.128 706.148,547.12 706.31,547.065 C706.633,546.987 706.933,546.83 707.205,546.643 C707.477,546.457 707.72,546.233 707.943,546.007 C708.154,545.767 708.346,545.526 708.499,545.278 C708.58,545.16 708.649,545.037 708.715,544.921 C708.786,544.809 708.846,544.695 708.901,544.588 C709.014,544.375 709.1,544.18 709.167,544.018 C709.231,543.855 709.286,543.725 709.316,543.634 L709.368,543.498 L709.403,543.507 C709.403,543.507 709.391,543.556 709.368,543.651 C709.348,543.745 709.313,543.882 709.258,544.054 C709.207,544.225 709.138,544.431 709.042,544.661 C708.948,544.891 708.833,545.146 708.682,545.409 C708.538,545.674 708.353,545.942 708.142,546.21 C707.919,546.466 707.676,546.733 707.378,546.941 C707.085,547.151 706.755,547.335 706.398,547.433 C706.041,547.548 705.665,547.58 705.293,547.557 C705.107,547.521 704.917,547.511 704.745,547.422 L704.483,547.312 L704.242,547.156 C704.075,547.065 703.946,546.915 703.8,546.799 C703.664,546.669 703.542,546.522 703.417,546.387 C703.305,546.238 703.191,546.095 703.088,545.947 C702.991,545.794 702.89,545.648 702.802,545.5 C702.627,545.203 702.475,544.911 702.342,544.639 C702.079,544.091 701.899,543.614 701.779,543.278 C701.659,542.942 701.602,542.745 701.602,542.745 L701.636,542.731" id="Fill-55" fill="#73BE8C" sketch:type="MSShapeGroup"/>
            <path d="M700.53,549.544 C700.53,549.544 700.644,549.792 700.843,550.223 C700.942,550.439 701.069,550.696 701.217,550.988 C701.371,551.274 701.544,551.598 701.734,551.95 C701.928,552.297 702.147,552.665 702.397,553.034 C702.649,553.403 702.939,553.762 703.233,554.128 C703.393,554.292 703.548,554.472 703.719,554.629 C703.901,554.764 704.065,554.948 704.263,555.045 L704.551,555.221 C704.649,555.271 704.754,555.297 704.854,555.338 C705.053,555.44 705.266,555.435 705.472,555.474 L705.55,555.49 L705.616,555.49 L705.802,555.489 C705.921,555.485 706.061,555.498 706.164,555.48 C706.375,555.446 706.584,555.435 706.802,555.361 C707.235,555.254 707.638,555.044 708.003,554.795 C708.367,554.545 708.693,554.244 708.992,553.94 C709.276,553.619 709.535,553.295 709.739,552.963 C709.848,552.802 709.94,552.639 710.029,552.483 C710.125,552.332 710.205,552.18 710.279,552.037 C710.43,551.751 710.546,551.49 710.634,551.27 C710.722,551.051 710.796,550.879 710.836,550.756 C710.881,550.636 710.905,550.572 710.905,550.572 L710.953,550.585 C710.953,550.585 710.936,550.652 710.906,550.777 C710.877,550.904 710.831,551.088 710.759,551.317 C710.69,551.55 710.596,551.827 710.468,552.134 C710.342,552.443 710.188,552.785 709.986,553.137 C709.792,553.494 709.543,553.852 709.26,554.213 C708.961,554.558 708.635,554.914 708.235,555.193 C707.841,555.476 707.4,555.721 706.919,555.854 C706.441,556.008 705.937,556.05 705.437,556.019 C705.188,555.974 704.931,555.958 704.7,555.84 C704.584,555.789 704.462,555.75 704.35,555.689 L704.026,555.484 C703.802,555.361 703.63,555.16 703.432,555.004 C703.25,554.828 703.087,554.632 702.92,554.451 C702.77,554.249 702.616,554.058 702.478,553.861 C702.347,553.656 702.213,553.461 702.095,553.262 C701.859,552.861 701.655,552.471 701.477,552.105 C701.123,551.369 700.882,550.728 700.721,550.278 C700.56,549.826 700.483,549.562 700.483,549.562 L700.53,549.544" id="Fill-56" fill="#73BE8C" sketch:type="MSShapeGroup"/>
            <path d="M699.103,556.787 C699.103,556.787 699.248,557.101 699.503,557.652 C699.628,557.928 699.789,558.257 699.979,558.627 C700.176,558.994 700.396,559.405 700.637,559.857 C700.886,560.298 701.166,560.766 701.485,561.238 C701.805,561.708 702.175,562.164 702.548,562.631 C702.753,562.842 702.952,563.07 703.17,563.27 C703.402,563.441 703.61,563.679 703.864,563.802 L704.231,564.024 C704.356,564.089 704.489,564.124 704.616,564.176 C704.87,564.305 705.141,564.299 705.405,564.348 L705.503,564.369 L705.826,564.369 C705.977,564.362 706.155,564.379 706.287,564.356 C706.555,564.311 706.823,564.299 707.1,564.203 C707.653,564.069 708.165,563.799 708.631,563.482 C709.096,563.163 709.512,562.779 709.893,562.393 C710.255,561.983 710.584,561.569 710.845,561.146 C710.985,560.942 711.1,560.733 711.215,560.536 C711.336,560.341 711.439,560.149 711.534,559.965 C711.726,559.602 711.874,559.268 711.987,558.988 C712.099,558.709 712.192,558.489 712.245,558.334 C712.302,558.179 712.331,558.098 712.331,558.098 L712.393,558.114 C712.393,558.114 712.372,558.201 712.333,558.359 C712.297,558.522 712.237,558.757 712.145,559.048 C712.057,559.343 711.938,559.697 711.774,560.089 C711.614,560.482 711.417,560.919 711.16,561.367 C710.913,561.824 710.595,562.281 710.234,562.742 C709.853,563.177 709.437,563.634 708.927,563.99 C708.425,564.35 707.863,564.664 707.25,564.832 C706.64,565.028 705.996,565.083 705.359,565.044 C705.042,564.985 704.715,564.967 704.42,564.814 C704.272,564.75 704.117,564.7 703.973,564.623 L703.561,564.359 C703.276,564.204 703.055,563.946 702.805,563.748 C702.571,563.526 702.363,563.275 702.149,563.043 C701.958,562.787 701.763,562.542 701.587,562.291 C701.421,562.029 701.248,561.781 701.098,561.527 C700.798,561.018 700.538,560.519 700.311,560.052 C699.86,559.114 699.553,558.298 699.346,557.723 C699.141,557.147 699.043,556.809 699.043,556.809 L699.103,556.787" id="Fill-57" fill="#73BE8C" sketch:type="MSShapeGroup"/>
        </g>
    </g>
</svg>